#!OML:ASF X:\für Bonn\!DataBase\2005_08_10_Bjorn_Final\c3d\bjorn.ASF
:FULLY-SPECIFIED
:DEGREES
47
root 1.89771 18.7853 7.76095 -190.196 1.78579 178.86
lowerback -5.80037 -1.75151 3.10448
upperback 11.6375 -1.69424 -0.065688
thorax 16.1309 0.0649014 -1.99964
lowerneck -7.99935 0.820875 5.32465
upperneck 12.767 2.12664 -9.64754
head 5.29681 0.818475 -3.74518
rclavicle -1.60022e-014 3.97569e-015
rhumerus -337.106 18.3187 272.686
rradius 42.6339
rwrist 13.7233
rhand -34.6095 20.2487
rfingers 7.12502
rthumb -7.7679 -9.58863
lclavicle -1.60022e-014 3.97569e-015
lhumerus 14.4353 -27.0993 88.5527
lradius 35.5835
lwrist 32.7888
lhand -31.3839 -3.25654
lfingers 7.12502
lthumb -4.6538 26.6723
rfemur -5.65355 -4.32384 14.335
rtibia 36.02
rfoot -18.1058 12.3541
rtoes -8.25974
lfemur -0.613081 -9.55401 -13.9211
ltibia 50.6881
lfoot -9.31544 9.89247
ltoes -28.2106
48
root 1.93176 18.7813 7.72328 -190.396 1.63017 178.946
lowerback -5.96428 -1.71987 3.18273
upperback 11.6189 -1.67471 -0.0757756
thorax 16.2149 0.0833118 -2.05534
lowerneck -7.63555 0.747893 5.22242
upperneck 12.89 2.05764 -9.48828
head 5.26386 0.804779 -3.68275
rclavicle 4.77083e-015 -8.34896e-015
rhumerus -335.259 18.3129 273.185
rradius 42.5271
rwrist 14.1896
rhand -34.9824 20.3472
rfingers 7.12502
rthumb -8.12781 -9.47646
lclavicle 4.77083e-015 -8.34896e-015
lhumerus 15.7987 -26.5172 88.3235
lradius 36.2635
lwrist 33.6492
lhand -31.6806 -3.18606
lfingers 7.12502
lthumb -4.94033 26.7363
rfemur -5.21111 -4.47179 14.4673
rtibia 35.9422
rfoot -18.2342 12.4232
rtoes -8.18353
lfemur -0.913519 -9.5432 -13.8851
ltibia 51.1617
lfoot -9.31602 9.94971
ltoes -27.6199
49
root 1.96564 18.7783 7.68474 -190.576 1.48639 179.08
lowerback -6.1457 -1.69205 3.29604
upperback 11.5863 -1.6723 -0.0668182
thorax 16.2919 0.0947279 -2.11313
lowerneck -7.21679 0.685854 5.1045
upperneck 12.9848 2.00507 -9.32107
head 5.21407 0.801009 -3.61362
rclavicle -6.75868e-015 2.54444e-014
rhumerus -333.456 18.2927 273.666
rradius 42.4617
rwrist 14.5884
rhand -35.274 20.4281
rfingers 7.12502
rthumb -8.40922 -9.38453
lclavicle -6.75868e-015 2.54444e-014
lhumerus 17.1385 -25.9427 88.1135
lradius 36.9226
lwrist 34.5259
lhand -31.9457 -3.07482
lfingers 7.12502
lthumb -5.19629 26.8415
rfemur -4.7829 -4.62116 14.666
rtibia 35.8484
rfoot -18.3882 12.4136
rtoes -8.26163
lfemur -1.22532 -9.52547 -13.7885
ltibia 51.5796
lfoot -9.33833 9.94299
ltoes -26.627
50
root 1.99778 18.7751 7.64522 -190.744 1.35091 179.198
lowerback -6.35841 -1.63211 3.42543
upperback 11.5574 -1.62411 -0.103714
thorax 16.3959 0.134011 -2.22349
lowerneck -6.77889 0.61123 5.17318
upperneck 13.0806 1.9208 -9.2188
head 5.16067 0.786697 -3.59872
rclavicle 1.2921e-015 4.37326e-015
rhumerus -331.713 18.1161 274.024
rradius 42.426
rwrist 15.0379
rhand -35.4856 20.4458
rfingers 7.12502
rthumb -8.6134 -9.35845
lclavicle 1.2921e-015 4.37326e-015
lhumerus 18.5116 -25.5022 87.8534
lradius 37.5304
lwrist 35.4096
lhand -32.2057 -2.94886
lfingers 7.12502
lthumb -5.44733 26.9611
rfemur -4.36864 -4.75842 14.8431
rtibia 35.7539
rfoot -18.5289 12.4181
rtoes -8.39515
lfemur -1.53454 -9.53575 -13.7241
ltibia 51.9304
lfoot -9.42388 9.84657
ltoes -25.6361
51
root 2.02904 18.7716 7.60527 -190.901 1.21729 179.338
lowerback -6.56881 -1.5423 3.61211
upperback 11.5119 -1.54156 -0.17811
thorax 16.4786 0.197607 -2.40164
lowerneck -6.34919 0.522183 5.3884
upperneck 13.2148 1.80743 -9.14439
head 5.11929 0.76312 -3.61952
rclavicle 5.36719e-015 -7.55382e-015
rhumerus -330.076 17.8 274.258
rradius 42.3395
rwrist 15.6684
rhand -35.7306 20.4269
rfingers 7.12502
rthumb -8.84986 -9.36754
lclavicle 5.36719e-015 -7.55382e-015
lhumerus 19.8861 -25.2077 87.551
lradius 38.0465
lwrist 36.269
lhand -32.4372 -2.78479
lfingers 7.12502
lthumb -5.67085 27.1193
rfemur -3.96529 -4.89566 15.0452
rtibia 35.6635
rfoot -18.6936 12.4273
rtoes -8.40713
lfemur -1.84509 -9.53483 -13.6237
ltibia 52.2179
lfoot -9.62298 9.70248
ltoes -25.0904
52
root 2.05971 18.7669 7.56492 -191.07 1.08539 179.45
lowerback -6.77116 -1.47339 3.73221
upperback 11.4774 -1.47859 -0.232279
thorax 16.5712 0.243582 -2.52306
lowerneck -5.9711 0.449075 5.50794
upperneck 13.3811 1.72984 -9.05063
head 5.09877 0.753404 -3.61588
rclavicle 1.51573e-014 -1.07344e-014
rhumerus -328.498 17.5096 274.505
rradius 42.3093
rwrist 16.3824
rhand -35.8817 20.3573
rfingers 7.12502
rthumb -8.99567 -9.43088
lclavicle 1.51573e-014 -1.07344e-014
lhumerus 21.2699 -24.9199 87.2723
lradius 38.5241
lwrist 37.125
lhand -32.7197 -2.63969
lfingers 7.12502
lthumb -5.94361 27.2569
rfemur -3.56269 -5.0081 15.2175
rtibia 35.5954
rfoot -18.8634 12.4059
rtoes -8.45807
lfemur -2.11943 -9.53402 -13.5596
ltibia 52.4348
lfoot -9.81365 9.66642
ltoes -24.5401
53
root 2.08986 18.7613 7.52259 -191.237 0.961859 179.534
lowerback -6.98142 -1.39317 3.8527
upperback 11.4368 -1.39759 -0.322989
thorax 16.6625 0.300409 -2.68278
lowerneck -5.58501 0.369443 5.67055
upperneck 13.5607 1.64037 -8.945
head 5.08018 0.741392 -3.61648
rclavicle 7.70291e-015 -1.27222e-014
rhumerus -326.989 17.154 274.665
rradius 42.2862
rwrist 17.1283
rhand -36.2723 20.8223
rfingers 7.12502
rthumb -9.37251 -8.94933
lclavicle 7.70291e-015 -1.27222e-014
lhumerus 22.6348 -24.7032 86.976
lradius 38.921
lwrist 37.8041
lhand -33.0126 -2.4282
lfingers 7.12502
lthumb -6.2264 27.4603
rfemur -3.17248 -5.11425 15.3571
rtibia 35.5574
rfoot -19.0617 12.4033
rtoes -8.43681
lfemur -2.37511 -9.52774 -13.5272
ltibia 52.5807
lfoot -9.95499 9.72092
ltoes -24.2766
54
root 2.11866 18.7552 7.48066 -191.366 0.823648 179.558
lowerback -7.20831 -1.32448 3.87667
upperback 11.3708 -1.32606 -0.400867
thorax 16.7344 0.336232 -2.77672
lowerneck -5.20124 0.301514 5.72905
upperneck 13.7761 1.57608 -8.76849
head 5.07419 0.742283 -3.5757
rclavicle 5.56597e-015 -6.55989e-015
rhumerus -325.577 16.8185 274.823
rradius 42.3318
rwrist 17.8902
rhand -36.8672 21.7277
rfingers 7.12502
rthumb -9.94656 -8.01732
lclavicle 5.56597e-015 -6.55989e-015
lhumerus 23.967 -24.5068 86.7171
lradius 39.3205
lwrist 38.509
lhand -33.3206 -2.17092
lfingers 7.12502
lthumb -6.52372 27.7086
rfemur -2.85314 -5.23073 15.429
rtibia 35.561
rfoot -19.2688 12.3962
rtoes -8.50571
lfemur -2.64932 -9.55067 -13.5716
ltibia 52.6547
lfoot -10.0997 9.86039
ltoes -23.8415
55
root 2.14709 18.749 7.43745 -191.445 0.697752 179.512
lowerback -7.48388 -1.25186 3.83508
upperback 11.2855 -1.24273 -0.50624
thorax 16.8159 0.369267 -2.86421
lowerneck -4.84443 0.233753 5.84994
upperneck 14.0331 1.52267 -8.6618
head 5.08701 0.74871 -3.56722
rclavicle -6.90777e-015 1.47101e-014
rhumerus -324.247 16.4951 274.927
rradius 42.4228
rwrist 18.6224
rhand -37.3787 22.6045
rfingers 7.12502
rthumb -10.44 -7.11624
lclavicle -6.90777e-015 1.47101e-014
lhumerus 25.2582 -24.3153 86.4794
lradius 39.7404
lwrist 39.2472
lhand -33.6581 -1.84482
lfingers 7.12502
lthumb -6.8495 28.0244
rfemur -2.61372 -5.28757 15.4372
rtibia 35.6099
rfoot -19.501 12.3863
rtoes -8.44668
lfemur -2.95712 -9.50605 -13.6647
ltibia 52.6629
lfoot -10.2187 9.99965
ltoes -23.4349
56
root 2.1744 18.742 7.39327 -191.503 0.565316 179.416
lowerback -7.75801 -1.18255 3.74343
upperback 11.1689 -1.15881 -0.627165
thorax 16.8572 0.393519 -2.94148
lowerneck -4.43384 0.173852 5.90854
upperneck 14.2809 1.4818 -8.48353
head 5.08839 0.765151 -3.52454
rclavicle -6.4605e-016 -1.07344e-014
rhumerus -322.938 16.2406 275.07
rradius 42.4246
rwrist 19.2555
rhand -37.8895 23.387
rfingers 7.12502
rthumb -10.9327 -6.30839
lclavicle -6.4605e-016 -1.07344e-014
lhumerus 26.4895 -24.1219 86.2722
lradius 40.1571
lwrist 39.9615
lhand -33.9781 -1.49839
lfingers 7.12502
lthumb -7.15842 28.3605
rfemur -2.40879 -5.34744 15.3878
rtibia 35.6926
rfoot -19.7401 12.3584
rtoes -8.46578
lfemur -3.27035 -9.42047 -13.7952
ltibia 52.6109
lfoot -10.3288 10.0733
ltoes -23.0406
57
root 2.2007 18.7331 7.34967 -191.567 0.420555 179.352
lowerback -8.01479 -1.12247 3.67334
upperback 11.0628 -1.0874 -0.739153
thorax 16.8993 0.415583 -3.02233
lowerneck -4.1025 0.116984 5.97617
upperneck 14.5983 1.4503 -8.31093
head 5.12568 0.785962 -3.48534
rclavicle -1.46107e-014 1.35174e-014
rhumerus -321.606 16.0286 275.281
rradius 42.3918
rwrist 19.7721
rhand -38.3388 24.0053
rfingers 7.12502
rthumb -11.366 -5.66664
lclavicle -1.46107e-014 1.35174e-014
lhumerus 27.7304 -23.9281 86.0933
lradius 40.5819
lwrist 40.597
lhand -34.3376 -1.07223
lfingers 7.12502
lthumb -7.50543 28.7746
rfemur -2.21319 -5.3562 15.3851
rtibia 35.7978
rfoot -20.0105 12.3072
rtoes -8.32236
lfemur -3.56808 -9.30633 -13.8723
ltibia 52.5068
lfoot -10.3983 10.0536
ltoes -22.7433
58
root 2.22595 18.7241 7.30403 -191.636 0.310942 179.279
lowerback -8.26849 -1.06365 3.58997
upperback 10.9769 -1.01159 -0.842843
thorax 16.9659 0.440148 -3.08459
lowerneck -3.86666 0.0771011 6.03244
upperneck 14.9449 1.44317 -8.15541
head 5.19043 0.815259 -3.44859
rclavicle -6.41081e-015 -1.49089e-015
rhumerus -320.315 15.8034 275.422
rradius 42.4366
rwrist 20.3051
rhand -38.749 24.571
rfingers 7.12502
rthumb -11.7616 -5.07879
lclavicle -6.41081e-015 -1.49089e-015
lhumerus 28.9736 -23.6979 85.9612
lradius 41.0094
lwrist 41.1352
lhand -34.6537 -0.781605
lfingers 7.12502
lthumb -7.81049 29.0541
rfemur -2.00798 -5.35331 15.3731
rtibia 35.9047
rfoot -20.2898 12.2541
rtoes -8.28128
lfemur -3.83702 -9.14197 -13.9555
ltibia 52.3476
lfoot -10.4713 10.0006
ltoes -22.5273
59
root 2.25033 18.7164 7.25685 -191.68 0.224386 179.176
lowerback -8.49286 -1.0054 3.48037
upperback 10.8572 -0.933919 -0.957373
thorax 16.9704 0.458709 -3.14356
lowerneck -3.65064 0.0600998 6.06414
upperneck 15.3356 1.46858 -7.95216
head 5.27467 0.86358 -3.39102
rclavicle -3.85145e-016 1.49089e-015
rhumerus -319.145 15.5666 275.444
rradius 42.5726
rwrist 20.9563
rhand -38.9596 24.6188
rfingers 7.12502
rthumb -11.9647 -5.0193
lclavicle -3.85145e-016 1.49089e-015
lhumerus 30.104 -23.4163 85.9283
lradius 41.4456
lwrist 41.5261
lhand -34.9868 -0.560605
lfingers 7.12502
lthumb -8.13203 29.2629
rfemur -1.82374 -5.3129 15.3357
rtibia 35.9963
rfoot -20.5669 12.1977
rtoes -8.16842
lfemur -4.113 -8.99465 -14.0868
ltibia 52.1374
lfoot -10.5173 10.0031
ltoes -22.4756
